<?xml version="1.0" encoding="utf-8"?>
<!-- Generator: Adobe Illustrator 25.0.1, SVG Export Plug-In . SVG Version: 6.00 Build 0)  -->
<svg version="1.1" id="Layer_1" xmlns="http://www.w3.org/2000/svg" xmlns:xlink="http://www.w3.org/1999/xlink" x="0px" y="0px"
	 viewBox="0 0 1500 670" style="enable-background:new 0 0 1500 670;" xml:space="preserve">
<g>
	<path d="M567.21,434.95c-3.24-1-6.2-2.13-8.29-5.26c-2.08-3.12-5.54-4.7-9.28-4.05c-4.73,0.83-8.68-0.63-12.6-2.91
		c-2.91-1.68-5.8-3.47-8.92-4.68c-5.92-2.3-8.17-1.41-11.4,3.91c-0.92,1.53-1.58,3.3-3.83,3.08c-0.88-0.1-2.03-0.4-2.01-1.37
		c0.05-1.91,2.14-2.16,3.18-3.29c1.45-1.57,3.52-3.31,1.82-5.44c-1.75-2.19-4.19-1.24-6.12,0.35c-1.83,1.51-3.75,2.7-6.21,2.64
		c-1.06-0.03-2.27-0.02-2.68-1.25c-0.44-1.3,0.63-1.88,1.54-2.43c2.27-1.35,4.53-2.75,6.88-3.97c3.75-1.97,4.08-4.55,0.77-6.88
		c-2.94-2.06-4.52-4.78-6.05-7.85c-2.97-5.97-10.76-10.47-16.64-9.14c-4.83,1.08-7.65-0.53-10.28-4.35
		c-1.65-2.4-2.92-5.54-6.09-6.43c-2.69-0.75-6.1-0.2-7.91-2.5c-2.06-2.64,2.66-4.79,1.48-7.76c-3.59,1.97-3.63,2.03-7.1-0.35
		c-1.73-1.2-3.92-2.16-5.46-1.28c-4.43,2.53-8.52,4.63-13.01,0.21c-0.36-0.35-1.73,0.12-2.51,0.48c-2.85,1.36-4.81,0.51-5.95-2.31
		c-1.9-4.71-4.43-3.15-6.67-0.53c-1.85,2.16-3.12,4.74-3.54,7.66c-0.13,0.88-0.39,1.91-1.51,1.84c-1.02-0.06-1.37-1.01-1.46-1.93
		c-0.26-2.66-0.36-5.31,0.3-7.95c0.36-1.43,2.17-3,0.46-4.32c-1.45-1.11-3,0.31-4.39,1.01c-5.64,2.84-10.06,7.08-13.98,12.02
		c-1.89,2.39-4.87,5.06-7.57,2.13c-4.01-4.37-7.39-3.75-12.08-1.37c-6.84,3.47-12.46-0.18-12.8-7.85c-0.17-3.71-0.14-7.5,0.39-11.16
		c1.3-8.9-2.86-12.76-11.5-11.06c-3.34,0.65-7.83,2.91-9.98-2.5c0,0,0,0,0,0c-0.62-0.62-1.36-1.15-1.84-1.87
		c-3.73-5.52-3.82-5.58-7.94-0.57c-1.48,1.81-2.75,2.4-4.84,0.79c-5.47-4.24-7.35-3.89-11.26,1.72c1.08,0.66,2.18,1.31,3.26,1.98
		c4.13,0.11,6.72,1.53,5.39,6.23c0.01,0.06,0.03,0.11,0.04,0.18c4.16,3.8,9.48,4.52,14.68,5.27c6.99,1,10.93,4.36,11.92,11.2
		c0.38,2.62,1.84,4.06,3.93,5.27c4.88,2.83,9.58,6.12,14,9.47c4.19,3.16,5.75,3.01,7.69-1.41c1.73-3.95,5.02-3.37,6.6-0.76
		c3.23,5.33,6.83,10.66,5.81,17.73c-0.99,6.81-4.49,11.6-9.4,16.01c-3.09,2.78-7.64,5.54-5.14,10.97c2.07,4.51,1.73,8.35-1.14,12.45
		c-2.27,3.24-1.55,6.41,2,8.63c1.64,1.03,3.8,1.7,4.52,3.58c3.91,10.28,9.14,19.92,13.66,29.87c2.69,5.93,5.83,9.19,11.4,11.92
		c11.27,5.53,17.1,10.3,15.55,24.53c-0.96,8.72-3.74,17.44-1.79,26.42c0.45,2.03-0.8,3.63-1.99,5.29c-2.8,3.91-3.72,8.92-3.38,13.19
		c0.46,5.64,0.12,10.84-2.91,15.3c-3.09,4.55-2.24,10.39-5.68,14.69c-0.37,0.47-0.18,1.93,0.28,2.45c2.48,2.78,1.42,5.56,0.43,8.48
		c-0.74,2.16-1.94,4.49-0.98,6.73c2.85,6.61-0.1,11.63-3.99,16.54c-1.29,1.62-3.62,3.57-2.16,5.54c4.07,5.47-4.56,12.31,2.13,17.29
		c0.12,0.1-0.24,1-0.52,1.43c-0.98,1.52-0.35,2.72,0.67,3.82c1.85,2,2.61,4.28,3.21,7.02c0.92,4.31,5.01,6.34,8.74,7.77
		c3.29,1.26,3.84-2.07,4.91-4.24c0.51-1.04,1.55-1.68,2.57-0.67c1.39,1.36,0.41,2.52-0.55,3.66c-4.02,4.76-3.96,4.91,1.84,6.83
		c1,0.33,1.97,0.77,2.94,1.15c0.71,0,1.41,0,2.13,0c4.1-1.01,8.22-2.02,12.32-3.04c1.14-0.29,2.84-0.17,2.68-1.89
		c-0.16-1.66-1.83-1.4-3-1.47c-4.78-0.33-8.23-3.12-11.27-6.41c-4.3-4.67-3.7-9.83,1.29-13.78c3.05-2.41,6.3-4.68,8.93-7.51
		c2.24-2.41,3.25-5.25-1.45-6.82c-4.78-1.59-5.02-3.04-1-6.25c5.03-4.01,7.71-9.83,12.84-14.52c-4.08-0.65-7.09-1.9-6.1-5.46
		c1.07-3.85,4.17-1.09,6.23-0.73c2.93,0.51,4.93,0.89,4.3-3.29c-0.61-4.09,1.53-5.81,5.59-5.72c3.18,0.07,6.39-0.06,9.52-0.5
		c5.55-0.77,7.34-5.68,9.81-9.68c2.19-3.54-1.13-5.44-2.71-7.82c-2.52-3.77-3.72-7.73-2.19-12.1c0.85,1.46,0.96,3.06,1.31,4.58
		c1.53,6.76,8.83,9.78,14.39,5.53c4.89-3.74,9.81-7.69,11.1-14.42c0.43-2.25,1.36-4.2,4.06-5.07c5.55-1.79,11.09-11.53,9.95-17.29
		c-0.69-3.51-0.21-6.46,2.99-8.33c4.43-2.59,8.64-6.09,13.74-6.81c8.66-1.21,14.89-3.98,18.6-13.19c3.43-8.53,5.87-16.86,5.25-25.86
		c-0.29-4.16,0.24-7.61,3.54-9.94c7.04-4.97,10.7-12.15,13.73-19.83C578.8,443.96,575.79,437.61,567.21,434.95z"/>
	<path d="M1490.59,494.96c4.85-0.37,6.84-2.9,9.41-4.29c0-1.07,0-2.14,0-3.21C1496.03,488.31,1493.66,490.94,1490.59,494.96z"/>
	<path d="M1444.9,135.23c9.4,0.83,18.07-1.04,26.74-5.04c6.43-2.96,13.27-5.85,20.77-5.62c1.51,0.04,3.63,0.77,4.37-0.92
		c0.94-2.13-1.47-2.9-2.68-4.01c-1.9-1.75-3.08-3.47,0.31-4.59c5.07-1.68,5.21-5.12,3.78-9.34c-0.63-1.87-1.2-3.73-0.26-5.69
		c1.6-3.32-0.5-4.9-3.01-6.27c-2.63-1.43-5.51-1.1-8.32-1.13c-6.31-0.07-12.66,0.71-18.48-3.12c-3.63-2.37-6.35-0.42-7.92,3.32
		c-1.67,3.97-3.96,4.74-7.1,1.38c-0.58-0.63-1.39-1.12-2.18-1.5c-8.28-3.93-16.87-2.82-25.31-0.99c-4.22,0.92-7.69,1.3-11.4-1.59
		c-5.93-4.65-12.62-6.63-20.4-5.41c-9.13,1.44-18.25,1.75-26.4-4.25c-3.89-2.86-8.43-3.25-13.21-2.09
		c-3.91,0.95-7.78,0.25-11.22-1.99c-2.15-1.39-5.93-2.04-5.66-4.78c0.24-2.56,4.07-1.97,6.26-2.91c1.3-0.56,3.77-0.07,3.42-2.4
		c-0.27-1.75-2.29-1.91-3.83-2.35c-7.39-2.1-15.07-0.98-22.55-2.08c-2.32-0.34-5.24,0.53-5.43,3.1c-0.2,2.75,2.88,1.7,4.58,2.17
		c0.68,0.18,1.42,0.12,2.09,0.32c2.7,0.81,6.67,0.25,6.39,4.73c-0.28,4.25-1.62,8.78-6.36,9.37c-7.96,0.97-15.97,3.25-24.08,0.9
		c-1.78-0.51-3.04,0.46-4.41,1.28c-7.78,4.7-10.46,3.46-12.68-5.64c-0.56-2.33-0.64-5.14-3.9-5.68c-8.17-1.36-16.19-1.3-23.54,3.18
		c-3.59,2.19-7.38,3-11.13,1.15c-8.09-4-16.68-4.01-25.33-3.79c-1.65,0.04-3.41,0.07-4.36-1.36c-1.25-1.89,0.85-2.76,1.73-3.92
		c2.64-3.47,2.22-5.81-1.79-6.57c-8.17-1.54-16.49-2.72-24.75-0.85c-3.14,0.71-5.23,0.32-7.64-1.82
		c-5.31-4.72-10.12-4.38-16.25-0.74c-6.6,3.93-13.71,6.83-21.69,3.88c-3.46-1.28-7.07-1.52-10.34,0.21
		c-5.56,2.94-11.41,3.54-17.5,3.1c-4.02-0.29-7.8,0.97-11.3,2.59c-8.51,3.92-16.77,8.61-26.71,6.03c-0.32-0.09-0.7,0.03-1.05,0.1
		c-1.11,0.19-2.05,0.66-2.31,1.87c-0.28,1.32,0.68,1.97,1.63,2.44c2.38,1.18,4.78,2.31,7.23,3.34c2.63,1.12,4.51,2.81,4.8,5.82
		c0.18,1.87-0.03,3.9-1.82,4.67c-2.27,0.98-2.98-1.32-3.79-2.77c-0.94-1.66-0.84-4.1-3-4.78c-4.78-1.47-8.96-4.08-13.32-6.41
		c-2.64-1.42-5.27-0.58-6.43,2.61c-0.9,2.49-1.23,5.64-4.72,5.56c-4.1-0.1-3.12-4.04-4.23-6.4c-0.14-0.29-0.48-0.46-0.73-0.68
		c-4.25,3.15-4.66,3.29-3.05,8.1c0.98,2.95-2.47,7.33,1.42,8.39c2.36,0.64,5.74-2.15,8.53-3.62c2.51-1.32,4.83-1.83,6.3,1.12
		c0.96,1.91,3.4,4.06,1.35,6.21c-2.11,2.22-5.46,2.67-7.72,0.43c-4.12-4.11-6.97-1.61-9.85,1.25c-2.13,2.12-3.61,4.91-6.44,6.26
		c-2.54,1.21-5.47,5.35-7.62,2.56c-2.18-2.83,2.31-4.93,4.46-6.61c3.41-2.68,4.4-5.6,3.12-9.76c-0.91-2.99-2.04-6.2-0.26-9.33
		c1.51-2.64,0.51-4.32-1.83-5.69c-1.68-0.99-3.44-1.93-4.86-3.24c-2.55-2.36-4.4-2.04-6.64,0.56c-2.75,3.19-5.64,6.29-9.69,8.12
		c-4.07,1.84-4.03,3.46-0.35,6.43c1.51,1.22,2.98,2.5,4.46,3.76c0.83,0.69,1.72,1.52,1.36,2.67c-0.45,1.47-1.88,1.53-3.1,1.42
		c-1.39-0.12-2.87-0.27-4.12-0.82c-5.25-2.35-10.98-2.77-16.47-4.02c-4.85-1.11-9.91-1.15-13.81,3.15
		c-1.39,1.53-3.51,2.39-5.34,1.45c-3.43-1.75-6.89-0.68-10.34-0.87c-3.7-0.19-7.28,2.73-10.2,1.75c-6-2.03-11-0.21-16.32,1.62
		c-1.62,0.56-3.56,0.79-5.21,0.45c-3.49-0.73-6.25-0.04-8.54,2.76c-0.74,0.91-1.75,2.14-3.12,1.27c-1.33-0.83-0.64-2.21-0.35-3.4
		c0.39-1.6,2.17-3.51,0-4.74c-2.2-1.25-4.85-0.98-7.18,0.06c-2.26,1-2.08,2.99-1.65,5.03c0.44,2.08,0.82,4.18,1.05,6.28
		c0.06,0.57-0.36,1.39-0.83,1.78c-0.66,0.57-1.49,0.05-1.75-0.58c-1.79-4.24-4.88-3.8-7.75-1.78c-2.5,1.76-6.63,1.71-7.37,5.44
		c-1.03,5.29-4.29,4.82-7.98,3.63c-1.67-0.53-3.42-1.85-5.06-0.85c-5.51,3.35-7.49,0.32-8.9-4.46c-0.37-1.28-2.25-2.44-1.29-3.76
		c1.11-1.53,3.14-0.79,4.4-0.03c8.22,4.96,15.23-0.8,22.68-2.45c0.97-0.21,2.3-0.69,2.03-2c-0.14-0.66-1.15-1.3-1.9-1.65
		c-4.41-1.99-9.09-2.92-13.89-3.19c-6.8-0.4-13.68-1.52-19.43-4.91c-9.68-5.72-20.3-5.77-30.76-6.75
		c-15.87-1.5-30.07,5.38-44.71,9.89c-1.11,0.33-2.13,1.29-2.93,2.19c-9.47,10.43-19.19,20.21-33.4,24.41
		c-7,2.07-8.4,6.23-6.97,13.19c0.21,1.04,0.19,2.13,0.39,3.17c0.81,4.12,2.7,7.14,7.23,8.16c4.54,1.03,8.03,0.15,10.39-4.08
		c0.8-1.42,1.77-2.88,3.62-2.66c2.14,0.26,1.8,2.34,2.25,3.77c4.25,13.22,5.85,13.98,19.42,9.36c1.92-0.65,3.88-1.39,4.37-3.49
		c1.06-4.53,3.73-7.96,6.79-11.24c2.31-2.48,2.53-4.6-1.14-6.09c-1.72-0.69-4.13-1.14-3.78-3.74c0.3-2.18,1.79-3.93,3.76-4.87
		c1.73-0.82,3.67-1.28,5.56-1.71c5.27-1.19,9.17-3.8,9.82-9.62c0.26-2.31,1.5-3.09,3.46-3.16c2.83-0.11,5.66-0.12,8.49-0.09
		c1.2,0.02,2.72-0.16,3.26,1.23c0.68,1.73-0.83,2.64-1.97,3.33c-3.93,2.39-7.99,4.58-11.95,6.93c-3.72,2.21-3.56,5.59-1.88,8.81
		c1.62,3.09,2.71,7.86,7.9,5.63c5.77-2.49,11.88-1.37,17.78-2.33c3.14-0.51,6.27,0.9,6.41,4.1c0.16,3.85-3.65,2.75-6.05,3.11
		c-0.87,0.13-1.77,0.03-2.66,0.04c-4.25,0.06-8.5,0.06-12.74,0.27c-0.97,0.04-2.1,0.59-2.78,1.27c-0.79,0.81,0.04,1.56,0.75,2.15
		c1.15,0.95,3.39,1.58,2.37,3.53c-1.13,2.17-3.44,1.32-5.27,0.87c-3.8-0.96-7.07-0.78-8.98,3.3c-0.99,2.1-1.9,4.25-1.9,6.61
		c0,3.58-1.5,4.73-5.03,3.82c-2.54-0.66-5.44-2.12-7.78-0.95c-7.06,3.49-14.1,2.84-21.52,1.73c-5.99-0.9-8.07-2.12-7.62-8.2
		c0.34-4.51-1.55-4.74-5.04-3.95c-3.2,0.73-4.59,2.64-5.51,5.69c-1.16,3.86,1.56,6.26,3.21,9.63c-5.31,0.29-10.43-1.31-14.63,2.39
		c-3.42,3.02-6.93,5.92-11.54,7.2c-1.71,0.48-3.75,1.46-4.16,3.75c-0.62,3.46-3.01,4.38-6.1,4.79c-7.33,0.96-14.32,3.28-22.18,6.09
		c4.28,2.02,7.78,3.53,11.15,5.29c4.75,2.48,4.61,6.46,3.42,11.03c-1.16,4.42-3.28,6.9-8.15,6.28c-5.97-0.76-11.97-1.24-18-1.08
		c-6.89,0.18-8.82,2.43-7.64,9.33c0.54,3.16,1.22,6.24-0.47,9.34c-2.72,4.99-0.14,10.49,5.6,11.1c3.53,0.37,5.96,1.69,7.95,4.45
		c0.77,1.06,2.32,3.12,3.2,1.6c2.72-4.65,7.26-2.65,10.9-3.7c3.61-1.04,11.63-7.34,11.79-9.72c0.36-5.38,3.91-10.41,8.92-11.37
		c3.36-0.64,4.91-2.33,5.7-5.34c0.96-3.62,3.19-5.02,6.78-3.64c5.08,1.97,9.55,0.96,14-2.1c4.27-2.96,7.22-2.22,10.02,2.32
		c2.77,4.49,6.62,7.5,11.55,8.77c6.09,1.57,10.56,4.73,12.96,10.67c0.39,0.96,0.81,2.21,2.15,1.85c1.29-0.35,1.08-1.7,1.12-2.71
		c0.07-2.22,0.22-4.2,3.02-4.86c2.25-0.54,1.77-1.98,0.31-2.97c-2.2-1.48-4.43-3.01-6.86-4.05c-6.49-2.77-10.32-8.48-15-13.26
		c-1.02-1.05-1.72-2.41-0.69-3.85c1.02-1.42,2.46-1.19,3.83-0.57c0.97,0.44,1.98,0.85,2.82,1.48
		c13.48,10.18,26.06,21.13,32.28,37.61c0.5,1.31,0.84,3.14,2.47,3.16c4.25,0.05,6.39-3.57,8.84-6.14c2.01-2.1,0.07-4.22-1.69-5.89
		c-1.07-1-3.17-1.9-1.16-3.71c1.96-1.75,4.11-3.32,6.3-4.79c2.25-1.5,4.08-1.06,4.79,1.78c0.43,1.71,0.82,3.46,0.99,5.22
		c0.63,6.67,8.05,14.22,14.86,14.12c7.34-0.11,14.73,2.35,22.07-0.58c2.67-1.06,4.52,0.38,4.08,3.6c-0.87,6.38-2.23,12.45-6.4,17.79
		c-2.95,3.79-6.07,4.55-10.14,2.93c-6.36-2.53-11.58-0.15-16.8,3.32c-2.12,1.41-3.21,6.74-5.69,4.21c-2.2-2.24,2.87-3.89,4.46-6.01
		c0.83-1.1,2.61-1.85,2.09-3.43c-0.64-1.92-2.65-1.46-4.16-1.44c-6.58,0.1-13.04-0.03-19.29-2.7c-3.82-1.62-7.16,0.1-10.15,2.78
		c-7.11,6.39-12.03,6.83-20.45,1.86c-2.61-1.55-5.18-3.46-8.17-3.68c-6.02-0.44-9.65-4.94-14.24-7.77c-1.77-1.1-2.35-3.14,0.05-4.11
		c3.39-1.38,2.89-3.59,1.84-6.04c-1.48-3.41-2.7-7.55-7.52-6.92c-9.14,1.19-18.29,1.88-27.49,2.06c-1.15,0.02-2.26,0.91-3.42,1.28
		c-8.86,2.82-16.86,8.35-26.67,8.25c-12.76-0.14-22.99,9.44-23.85,22.24c-0.2,3.07-0.9,5.69-3.91,6.98
		c-9.83,4.2-16.53,11.26-19.82,21.54c-0.43,1.34-1.15,2.65-2.01,3.75c-3.35,4.25-3.4,8.58-1.26,13.47
		c2.41,5.51,3.42,11.15-0.45,16.74c-2.99,4.31-6.39,8.74-2.7,14.45c0.39,0.62,0.22,1.78,0,2.61c-0.91,3.32,0.82,5.15,3.14,7.21
		c4.07,3.61,9.63,5.61,12.15,10.9c4.45,9.36,12.79,14.99,20.31,21.4c1.98,1.69,3.99,2.15,5.81-0.54c1.92-2.83,5.06-3.19,8.1-3
		c11.12,0.68,21.71-0.29,31.78-6.06c5.55-3.17,10.19-0.85,13.29,4.72c3.57,6.45,5.32,7.25,11.58,3.47c4.28-2.59,6.72,0,9.29,2.22
		c2.67,2.31,1.77,4.93-0.05,7.59c-3.68,5.36-2.64,11.98-4.32,17.89c-0.22,0.77,0.48,2.28,1.2,2.78c6.75,4.69,8.97,12.65,13.64,18.82
		c1.58,2.09,2.19,4.47,2.01,7.02c-0.36,4.94,0.56,9.48,3.16,13.78c2.09,3.45,1.77,6.57-1.84,9.25c-3.55,2.63-5.36,6.46-5.88,10.95
		c-0.85,7.31,0.38,14.22,4.13,20.49c5.81,9.71,10.99,19.55,9.99,31.42c-0.14,1.63,0.44,3.21,1.4,4.51
		c6.31,8.51,11.32,17.44,12.09,28.47c0.33,4.68,6.13,8.29,9.78,6.47c5.42-2.7,10.98-2.3,16.61-2.4c6.07-0.11,11.56-1.94,15.95-6.22
		c6.99-6.82,13.16-14.39,19.4-21.89c1.3-1.55,2.24-3.22,1.66-5.36c-1.19-4.38,0.9-7.03,4.53-9.1c7.37-4.2,7.99-4.5,5.09-12.54
		c-3.7-10.27,2.07-16.23,9.89-20.75c10.04-5.79,14.32-12.02,12.72-23.63c-0.57-4.24,2.37-9.07-0.7-12.45
		c-4.93-5.41-4.44-12.16-6.06-18.4c-0.65-2.52-0.07-5.17,1.42-7.15c6.86-9.04,12.48-20.08,21.84-25.82
		c9.83-6.04,14.7-14.63,20.24-23.47c2.73-4.38,5.58-8.72,6.82-13.77c0.88-3.62,4.45-8.14,1.03-10.85
		c-3.49-2.77-7.92,0.53-11.77,2.31c-5.28,2.43-10.43,5.31-16.55,5.21c-3.43-0.05-5.49-1.3-5.32-4.99c0.19-4.43-1.57-8.18-4.73-10.9
		c-10.64-9.17-14.88-22.39-21.01-34.21c-4.6-8.89-8.69-18.25-12.45-27.65c-1.69-4.23-0.66-5.74,3.92-5.51
		c2.6,0.13,3.92,1.68,4.61,3.75c3,9.06,10.04,16.19,11.99,25.76c0.53,2.59,2.07,4.98,4.25,6.63c7.13,5.4,9.96,12.98,11.58,21.44
		c2.75,14.37,6.15,15.94,19.74,9.67c0.81-0.37,1.59-0.78,2.39-1.18c9.03-4.46,18.31-8.31,27.7-11.94c5.19-2,9.66-5.19,12.9-9.86
		c3.14-4.52,6.11-9.17,9.42-13.56c2.88-3.82,1.63-6.4-1.74-8.93c-3.68-2.77-8.01-4.37-11.89-6.84c-5.03-3.21-7.49,3.89-11.74,4.97
		c-0.5,0.13-0.95,0.48-1.43,0.68c-1.88,0.78-2.99,0.17-4.47-1.4c-5.71-6.01-8.4-14.25-14.68-19.8c-0.64-0.57-1.23-1.4-1.41-2.21
		c-0.73-3.33,0.52-5.97,3.42-7.64c2.17-1.25,4.14-0.22,4.64,1.9c1.89,8,8.69,10.74,14.68,14.41c2.8,1.72,5.68,2.24,8.52,0.45
		c4.01-2.52,6.66-1.03,8.64,2.66c1.39,2.6,3.04,5.21,6.09,5.47c6.49,0.56,13.37,3.27,19.43,1.04c7.38-2.71,12.42-3.11,18.85,2.85
		c3.29,3.06,6.36,4.65,6.92,9.66c0.67,5.95,3.75,7.07,8.7,4.06c1.03-0.63,1.99-1.86,3.28-1.23c1.6,0.78,1.25,2.5,0.99,3.81
		c-1.04,5.19-0.72,10.25,0.86,15.28c2.68,8.5,5.98,16.7,10.46,24.45c3.25,5.62,7.39,10.95,7.37,18.01c-0.01,1.32,0.4,3.14,1.95,3.51
		c2.22,0.54,2.21-1.84,3.05-3.01c6.8-9.48,8.6-20.48,9.41-31.74c0.22-3.04,0.86-5.95,3.74-7.15c8.68-3.59,13.24-11.61,19.22-17.99
		c3.76-4.02,7.65-6.08,12.89-5.99c3.11,0.05,5.74-0.4,7.95-3.16c1.96-2.46,4.33-2.49,5.31,1.23c1.01,3.76,3.49,6.66,6.07,9.26
		c4.07,4.11,5.37,9.05,5.53,14.53c0.04,1.42,0.02,2.84,0.14,4.26c0.1,1.25,0.29,2.57,1.8,2.93c1.21,0.29,1.97-0.58,2.65-1.4
		c0.68-0.81,1.22-1.75,1.95-2.53c1.77-1.92,3.99-3.38,6.58-2.43c2.57,0.94,1.63,3.61,1.82,5.63c0.11,1.06-0.09,2.15,0.06,3.19
		c0.86,5.93,0.43,12.15,3.74,17.54c0.55,0.9,1.04,2.1,2.19,2.14c1.67,0.03,1.63-1.6,2.02-2.7c0.3-0.83,0.4-1.73,0.61-2.6
		c2-8.63,3.46-9.07,10.09-3.09c1.6,1.45,2.84,3.16,3.76,5.12c1.64,3.43,4.29,6.07,6.81,8.81c1.02,1.11,2.52,2.41,3.62,1.5
		c4.83-3.97,10.32-6.87,15.55-10.18c0.12-0.07,0.14-0.32,0.21-0.48c3.08-6.76,3.61-13.29-1.45-19.5c-2.57-3.16-4.9-6.5-7.79-9.42
		c-6.29-6.37-6.16-9.69,0.26-15.5c0.39-0.35,0.75-0.75,1.16-1.09c1.83-1.53,3.42-4.23,6.28-2.17c2.76,2,1.25,4.4,0.12,6.65
		c-1.21,2.39-2.42,4.85-2.19,7.59c0.2,2.37,0.98,4.79,4.08,4.52c2.77-0.24,6.13-6.57,5.17-9.37c-2.46-7.07-1.04-8.95,6.57-9.47
		c8.39-0.56,16.19-3.58,21.98-9.43c6.09-6.16,11.98-12.56,18.17-18.65c2.44-2.41,2.97-5.22,2.85-8.71
		c-0.28-8.03-3.14-14.88-8.1-20.94c-2.39-2.92-1.9-4.68,1.52-5.9c0.84-0.3,1.67-0.62,2.47-0.99c2.49-1.18,5.09-2.57,4.13-5.89
		c-0.88-3.09-3.86-2.3-5.89-1.86c-4,0.87-6.79-0.78-9.57-3.25c-2.84-2.52-2.53-4.81,0.71-6.11c3.58-1.43,6.5-3.45,8.97-6.37
		c0.88-1.05,2.18-2.35,3.6-1.74c1.86,0.8,0.28,2.49,0.35,3.78c0.1,1.69-1.45,3.78,0.38,4.98c1.92,1.26,3.63-0.57,5.34-1.39
		c0.79-0.38,1.51-0.93,2.26-1.39c3.48-2.13,4.95-0.14,5.46,2.95c0.24,1.5-0.36,3.13-0.49,4.71c-0.12,1.52-0.05,3.31,2.15,2.28
		c2.16-1.03,3.92-1.71,5.35,0.91c1.46,2.68,1.81,5.29,0.06,8.06c-1.06,1.69-3.14,3.54-0.9,5.63c2.21,2.07,4.73,1.87,7.34,0.38
		c6.52-3.7,7.93-11.2,3.08-17.77c-2.6-3.53-5.38-6.7,1-9.32c1.75-0.72,2.32-3,3.24-4.73c2.78-5.23,9.55-8.53,15.16-7.53
		c3.21,0.57,5.99-0.07,8.11-2.71c3.8-4.75,8.53-8.54,13.38-12.09c3.87-2.84,6.57-6.34,8.5-10.65c2.52-5.63,4.02-11.61,6.02-18.48
		c2.26,4.89,1.59,9.01,1.69,13.02c0.11,4.6-0.63,9.28,1.18,13.73c0.65,1.59,1.89,2.96,3.58,2.65c2.2-0.4,1.63-2.5,1.38-3.96
		c-0.47-2.8-1.72-5.75,0.8-8.04c3.55-3.24,2.64-6.55,0.77-10.1c-1.42-2.71-3.75-5.17-1.74-8.75c0.75-1.35-0.47-3.32-1.91-3.14
		c-4.57,0.59-8.7-0.17-12.65-2.48c-0.37-0.22-1.04,0.01-1.56,0.09c-3.44,0.51-7.5,4.09-9.67-1.97c-0.04-0.12-1.28,0.07-1.89,0.3
		c-1.28,0.46-2.7,1.77-3.79,0.17c-1.33-1.94,0.51-3.41,1.59-4.57c1.16-1.25,2.78-2.3,4.41-2.82c6.61-2.15,12.18-6.11,16.64-11.11
		c4.21-4.71,8.87-5.23,14.36-4.27c6.21,1.09,12.41,0.88,18.42-0.89c3.62-1.06,6.66-0.96,10.11,0.88c5.04,2.69,10.01,2.4,14.86-1.39
		c4.59-3.59,9.78-6.37,14.42-9.97c2.42-1.88,6.45-4.32,8.06,0.93c1.29,4.2,3.54,3.8,6.42,2.69c3.07-1.18,6.06-2.57,9.09-3.88
		c-5.79,4.72-11.3,9.72-18.33,12.32c-4.05,1.48-7.66,3.82-10.87,6.54c-4.3,3.63-8.35,8.31-5.66,14.28
		c3.28,7.28,4.67,14.06-0.53,21.19c0.44,0.17,0.87,0.33,1.38,0.62c2.7-2.52,5.41-5.02,8.08-7.59c4.58-4.4,8.42-10.49,13.86-12.87
		c7.48-3.27,8.5-9.22,9.37-15.25c1.54-10.64,2.84-12.32,13.59-12.39C1441.71,135.17,1443.32,135.09,1444.9,135.23z M872.94,414.32
		c-0.01,3.72-4.24,10-6.84,9.72c-2.94-0.32-3.32-2.81-3.45-5.13c-0.32-5.28,1.81-8.22,5.77-8.28
		C870.97,410.56,872.95,411.13,872.94,414.32z M862.06,129.26c2.83,0.54,5.77,1.61,5.94,4.99c0.12,1.99-2.15,1.83-3.8,1.92
		c-2.35-0.89-5.55-0.97-5.6-4.51C858.57,129.82,860.36,128.93,862.06,129.26z M905.41,220.65c-0.67,2.46-3,2.83-5.13,3
		c-1.95,0.16-3.9,0.03-4.84,0.03c-5.35,0.6-9.35-0.29-13.36-2.12c-6.06-2.76-12.11-3.27-18.17,0.68c-4.92,3.19-11.29,0.25-16.47,3.1
		c-0.18,0.11-1.16-0.65-1.12-0.81c1.22-4.04-3.06-8.38,1.31-12.47c3.29-3.1,5.37-7.47,8.29-11.03c3.92-4.79,6.91-4.54,10.53,0.5
		c5.03,7,7.41,7.04,12.75,0.01c1.23-1.62,2.44-3.04,4.53-3.38c1.35-0.21,2.98-1.2,3.99,0.14c1.04,1.39-0.68,2.08-1.43,2.95
		c-1.84,2.12-0.07,2.87,1.42,3.37c6.12,2,9.61,7.73,15.15,10.6C904.73,216.2,906.05,218.32,905.41,220.65z M958.43,204.82
		c-2.68,1.1-5.19,0.47-7.72-0.59c-2.88-1.21-5.25-0.45-6.78,2.3c-1.59,2.88,0.5,3.94,2.53,5.34c3.46,2.38,5.09,6.86,9.28,8.56
		c0.38,0.15,0.74,1.57,0.51,1.83c-3.82,4.01-0.09,7,1.12,10.45c1.21,3.44,3.42,7.59,0.65,10.64c-2.85,3.14-7.3,2.83-11.48,1.89
		c-3.71-0.83-6.79-2.95-10.2-4.38c-2.59-1.09-3.07-3.79-3.18-6.32c-0.11-2.51,1.92-3.01,3.83-3.69c1.3-0.46,2.61-1.19,3.62-2.13
		c3.09-2.9,2.71-5.6-1.34-6.55c-7.26-1.71-10.82-6.95-13.69-13.03c-2.77-5.91,0.88-11.17,7.97-10.86c4.05,1.67,7.58-0.61,11.31-2.92
		c5.37-3.31,14.03,0.45,15.66,6.44C961.06,203.78,959.82,204.26,958.43,204.82z"/>
	<path d="M329.1,331.27c3.11,1.05,5.4,1.07,8.3-0.82c3.71-2.43,7.81,0.03,8.34,4.54c0.13,1.05,0.24,2.08,0.47,3.12c0,0,0,0,0,0.01
		c0.51-0.93,1.38-1.83,1.42-2.77c0.34-4.8,1.19-9.13,4.03-13.41c2.73-4.11-0.16-7.65-5.18-7.29c-1.75,0.13-3.5,0.77-5.24,0.76
		c-4.23-0.01-6.24,1.85-5.98,6.16c0.1,1.63-0.33,4.03-1.93,3.91c-4.21-0.32-7.41,1.32-10.59,3.66c-0.79,0.58-1.99-0.02-2.97-0.61
		c-10.89-6.53-15.1-15.72-12.76-28.35c0.55-3,1.49-6.13,0.32-8.93c-1.54-3.69,0.17-5.33,2.98-6.68c2.72-1.3,5.68-2.35,7.56-4.8
		c2.47-3.22,5.65-3.7,9.38-3.72c3.28-0.01,5.64,1.85,8.37,3c1.88,0.8,3.46,1.45,4.86-1.09c2.75-5.04,14.46-7.24,18.95-3.56
		c2.01,1.66,3.32,4.21,6.43,1.56c0.88-0.75,1.96,0.74,2.02,1.79c0.35,6.23,3.63,10.92,7.55,15.39c1.07,1.23,0.91,3.87,3.19,3.68
		c2.52-0.21,2.26-2.82,2.88-4.57c0.74-2.12,0.45-4.18-0.36-6.24c-1.55-3.96-2.99-7.97-4.58-11.92c-1.16-2.87-1.65-6.04,1.24-7.67
		c7.01-3.98,11.65-10.93,18.75-14.71c3.33-1.76,4.73-3.69,2.49-7.6c-1.32-2.31-3.05-6.28,2.81-5.87c1.37,0.11,3.02-0.97,2.77-1.93
		c-1.38-5.51,5.49-6.34,5.85-10.9c0.11-1.42,2.19-1.51,3.62-1.58c1.94-0.1,3.92,0.02,5.82-0.31c2.84-0.49,5.35-1.35,3.28-5.22
		c-1.48-2.77,0.51-4.47,2.17-6.45c2.84-3.41,7.41-2.14,10.53-4.39c3.12-2.26,4.3-1.29,4.7,2.22c0.45,3.95,2.72,5.65,6.19,3.31
		c5.62-3.79,11.86-5.34,18.35-6.41c1.38-0.24,3.02-0.59,3.27-2.25c0.28-1.87-0.81-3.44-1.98-4.78c-1.26-1.43-2.5-0.58-3.7,0.34
		c-1.66,1.26-3.73,2.36-4.87-0.16c-1.16-2.57-2.13-2.93-4.74-1.83c-2.75,1.16-4.37-0.43-4.09-3.5c0.64-6.97-2-8.96-8.63-6.29
		c-3.87,1.56-7.73,2.98-12.88,3.41c4.88-4.55,9.6-7.72,14.53-10.31c3.44-1.81,9.34-0.85,10.37,1.78c2.46,6.27,4.55,4.24,7.8,1.37
		c0.85-0.76,2.29-0.81,3.39-1.32c3.67-1.69,7.89-2.16,11.04-4.97c4.44-3.95,4.82-3.85,6.22,1.94c1.01-1.44,2.06-2.84,3-4.32
		c2.74-4.36,5.09-8.51-2.68-10.35c-1.38-0.33-2.4-2.46-3.48-3.85c-2.55-3.3-5.23-6.28-9.94-6.1c-2.48,0.1-3.57-1.86-4.9-3.57
		c-3.9-5.03-7.94-9.97-11.91-14.95c-1.92-2.41-3.9-2.88-6.1-0.33c-0.92,1.08-1.92,2.07-2.91,3.1c-2.18,2.25-4.26,5.64-7.89,3.42
		c-2.84-1.74-7.32-3.07-5.26-8.33c0.61-1.57-0.91-2.32-2.1-2.46c-6.39-0.73-12.07-3.63-18.01-5.74c-0.01,0-0.02-0.01-0.02-0.01
		c-2.85,0.01-5.69,0.02-8.54,0.02c0-0.01,0.01-0.01,0.01-0.01c-0.02,0.01-0.04,0.02-0.06,0.03c-2.36,0.36-5.09-0.73-6.97,1.57
		c-3,3.65,0.38,9.03-3.44,12.84c-0.77,0.77,2.67,3.73,4.34,5.53c1.84,2,4,4.04,1.88,6.92c-2.06,2.81-4.6,5.07-8.55,3.28
		c-0.91-0.42-1.93-1.45-2.83-0.36c-0.92,1.13-0.17,2.45,0.52,3.43c1.81,2.56,2.47,5.51,3.08,8.46c0.6,2.84,0.36,5.84-3.32,5.87
		c-2.85,0.02-7.03,0.51-6.1-4.85c0.17-0.99,0.34-2.92-0.64-2.75c-5.76,0.98-4.5-3.93-5.58-6.61c-0.87-2.13-2.05-3.28-4.25-3.26
		c-8.08,0.09-16.14-1.15-23.3-4.47c-6.84-3.17-15.86-0.82-20.86-8.37c-0.07-0.11-0.34-0.09-0.5-0.16
		c-4.53-2.28-5.69-7.51-1.88-10.96c5.09-4.62,10.63-8.75,16.08-12.96c1.71-1.31,3.92-1.84,6.07-1.56c4.7,0.6,7.88-0.78,8.22-6.89
		c2.07,2.41,4.97,4.35,4.73,5.74c-1.29,7.47,3.38,3.55,5.39,2.8c4.75-1.76,9.07-4.19,12.95,1.73c1.05,1.61,3.88,0.94,5-1.01
		c1.17-2.04-0.83-3-2.23-3.41c-5.79-1.67-10.27-6.9-17.07-6.08c-1.52,0.18-5.07,0.29-4.62-2.9c0.35-2.48,3.18-1.86,4.96-1.7
		c4.45,0.4,8.75,0.37,13.03-1.23c4.96-1.85,5.51-3.4,1.35-6.62c-3.12-2.43-2.08-3.62,0.72-4.64c1.47-0.53,3.11-0.84,4.66-0.77
		c2.68,0.13,5.4,0.91,6.52-2.71c0.36-1.16,1.64-1.23,2-0.33c1.32,3.27,4.35,3.12,6.93,4.05c2.19,0.79,2.82,2.66,1.57,4.76
		c-0.79,1.32-1.85,2.48-2.83,3.76c5.25,2.18,5.31,2.23,9.86-2.61c1.41-1.51,2.8-2.15,4.64-1.14c1.2,0.65,3.16,0.8,3.19,2.44
		c0.04,2.07-2.33,1.74-3.52,2.64c-1.13,0.84-2.81,1.45-3.28,2.57c-2.03,4.71-5.24,5.64-9.87,4.23c-1.98-0.6-4.32-0.51-5.72,1.68
		c-0.83,1.3-1.01,2.75-0.1,4.02c1.58,2.19,3.77,1.3,5.83,0.92c12.85-2.41,23.73,3.71,35.01,8.12c2.97,1.16,5.9,2.7,8.62-0.48
		c1.92-2.24,4.11-1.69,6.2-0.34c2.65,1.71,3.04,0.24,2.97-1.98c-0.09-2.62-1.77-4.19-3.78-5.44c-1.81-1.12-3.75-2.02-5.54-3.16
		c-1.06-0.67-1.96-1.71-1.37-3.12c0.58-1.42,1.93-1.42,3.19-1.21c3.02,0.52,5.65,2.01,8.35,3.34c3.63,1.79,10.56-0.49,12.46-4.01
		c1.35-2.52,0.24-3.54-2.24-3.93c-3.35-0.53-6.52-1.43-9.27-3.66c-2.07-1.68-4.55-2.93-7.33-2.68c-4.61,0.42-7.01-1.7-7.58-6.16
		c-0.46-3.7-2.32-5.38-6.21-5.83c-12.28-1.42-23.87-5.27-34.48-11.61c-3.55-2.13-7.27-2.86-10.62-1.65
		c-4.87,1.77-9.69,1.6-14.61,1.77c-3.73,0.13-7.55-0.01-8.46,5.17c-0.35,2.01-2.47,2.35-4.36,2.12c-1.7-0.21-1.55-1.57-1.67-2.83
		c-0.82-8.63-2.46-9.44-10.02-5.17c-1.23,0.69-2.52,1.34-3.85,1.79c-4.49,1.56-4.39,4.65-2.53,8.04c1.75,3.22,4.74,4.62,8.36,4.79
		c2.83,0.14,5.65,0.26,8.45,0.63c1.73,0.22,3.6,0.71,3.71,3.07c0.09,1.99-0.83,3.51-2.58,4.28c-1.99,0.88-3.62,2.12-5.21,3.58
		c-1.97,1.81-3.46,1.73-3.71-1.44c-0.34-4.36-2.97-5.75-6.58-4.01c-3.52,1.7-5.29,0.14-6.99-2.41c-2.39-3.58-5.57-6.43-8.62-9.39
		c-1.47-1.42-3.36-2.44-5.26-1.1c-1.79,1.26-1.06,3.19-0.44,4.88c1.18,3.17,2.27,6.37,2.39,9.8c0.15,4.27-3.15,4.65-6.09,5.21
		c-3.03,0.59-3.96-1.37-4.49-3.94c-1.29-6.34-2.13-6.78-9.07-5.4c3.45,5.43,2.93,7.95-2.16,8.65c-8.27,1.14-16.53-1.54-24.85-0.4
		c-1.13,0.15-2.57-0.58-2.71-2.07c-0.14-1.47,1.06-2.12,2.21-2.67c2.68-1.28,5.59-0.62,8.36-1.04c3.29-0.5,7.49-0.72,7.51-5.09
		c0.01-4.02-4.03-3.02-6.64-3.46c-5.41-0.92-8.01-3.8-8.03-9.53c-0.01-1.89-0.96-2.36-2.19-2.08c-3.63,0.81-7.34-2.93-10.1-1.18
		c-3.57,2.26,0.9,6.47-0.22,9.76c-1.25,0.36-1.98-0.38-2.25-1.14c-2.08-5.64-6.11-6.75-11.51-5.46c-7.03,1.68-13.32,0.27-19.58-3.7
		c-3.36-2.12-6.76-5.79-11.49-4.63c-7.63,1.88-15.32,1.54-23.03,1.1c-2.6-0.14-4.57,0.98-5.21,3.59c-0.78,3.19-2.22,5.87-5.39,7.48
		c2.34,2.32,5.13,1.43,7.31,2.7c6.36,3.72,12.53,2.66,18.22-1.56c1.77-1.31,3-1.61,4.5,0.11c2.8,3.21,5.65,6.35,8.43,9.56
		c0.79,0.91,1.77,1.96,0.87,3.31c-0.82,1.24-2.1,1.24-3.33,0.77c-4.11-1.59-8.45-2.32-12.54-4.21c-7.06-3.27-14.92-1.91-22.33-1.69
		c-2.89,0.09-5.59,4.24-8.05-0.87c-0.38-0.79-1.63-0.64-2.43-0.17c-2.26,1.32-4.49,0.72-6.65-0.12c-2.93-1.12-5.68-0.66-8.03,1.15
		c-3.66,2.82-7.43,2.9-11.44,1.06c-3.32-1.52-5.77-1.13-8.2,2.1c-2.26,3.01-5.29,4.25-9.15,1.29c-3.24-2.49-6.92-5.01-11.58-2.47
		c-1.06,0.58-2.84,0.24-4.16-0.14c-13.36-3.8-26.97-4.78-40.78-4c-4.08,0.22-8.02,0.19-11.86-1.9c-4.18-2.28-9.53-0.51-13.66-3.62
		c-0.86-0.64-1.97,0.47-2.69,1.26c-2.87,3.15-6.8,3.84-10.65,4.13c-5.45,0.42-10.46,1.35-14.4,5.63c-1.62,1.76-4,2.08-6.39,2.15
		c-1.43,0.03-3.61-0.49-3.6,1.93c0.01,1.75,1.71,2.21,3.15,2.2c4.61-0.04,8.37,2.7,12.64,3.82c2.37,0.63,5.13,2.28,4.06,5.23
		c-0.99,2.75-3.9,1.57-6.1,1.19c-0.86-0.15-1.94-0.36-2.44-0.95c-5.2-6.11-10.62-2.44-15.74-0.18c-4.04,1.77-3.97,3.8-0.24,6.26
		c1.16,0.76,2.53,1.31,3.88,1.63c5.59,1.34,11.16,2.12,16.51-1.05c1.38-0.81,3.03-1.26,4.53-0.27c0.44,0.29,0.79,1.3,0.63,1.81
		c-0.63,1.91-2.25,2.63-4.12,2.81c-1.23,0.13-2.49,0.07-3.71,0.26c-3.9,0.58-7.74,1.44-10.63,4.37c-1.99,2.02-4.11,3.97-1.52,7.26
		c4.68,5.94,7.52,7.48,11.07,4.59c3.85-3.12,5.06-1.89,5.58,2.35c0.19,1.54,1.55,3.95,2.81,2.83c3.46-3.1,5.15-1.24,7.25,1.38
		c0.96,1.19,2.3,0.48,3.33-0.32c1.33-1.03,2.54-1.29,3.53,0.41c0.89,1.53,0.2,2.71-0.87,3.79c-1.54,1.55-3.54,2.3-5.48,3.16
		c-5.81,2.59-11.67,5.13-17.37,7.98c-1.3,0.65-4.05,1.35-3.04,3.57c0.89,1.96,3.18,0.96,4.78,0.38c8.77-3.18,17.8-5.69,25.99-10.37
		c2.53-1.45,5.19-2.59,7.88-0.31c3.62,3.07,6.63,1.16,9.41-1.29c1.98-1.75,2.71-3.6-0.89-4.35c-1.2-0.25-2.84-0.22-1.85-2.17
		c1.52-3,3.12-5.96,4.86-8.84c0.63-1.05,1.81-1.84,3.18-1.42c1.43,0.43,1.01,1.68,0.81,2.68c-0.74,3.71,1.35,3.65,3.61,2.52
		c4.09-2.04,8.86-2.69,12.34-6.03c1.04-1,2.55-2.01,3.83-1.15c4.59,3.07,9.94,1.86,14.88,2.84c7.5,1.5,14.67,4.05,22.04,5.85
		c4.63,1.13,7.63,3.76,9.11,7.97c1.14,3.28,2.84,4.96,6.36,5.33c4.22,0.46,7,2.5,5.81,7.5c-0.51,2.17-0.08,4.42,1.23,6.11
		c1.98,2.53,5.09,5.66,7.8,4.33c3.32-1.63-0.07-4.44-1.16-6.63c-0.09-0.15-0.17-0.31-0.22-0.48c-0.37-1.22-0.79-2.69,0.37-3.45
		c1.39-0.9,2.36,0.44,2.89,1.51c1.79,3.62,4.53,6.19,7.9,8.38c2.14,1.39,3.14,3.85,2.74,6.56c-0.47,3.17,0.94,4.83,3.86,6
		c7.56,3.04,13.18,7.6,13.97,16.77c0.51,5.93-0.22,11.71-0.83,17.47c-0.73,6.85,0.83,12.66,5.12,17.82
		c2.17,2.61,4.02,5.35,5.63,8.35c2.47,4.57,5.56,9.08,10.56,10.76c4.32,1.44,6.62,4.03,8.77,7.76c3.25,5.65,4.34,12.64,9.67,16.97
		c2.67,2.17,3.73,4,1.49,7.07c-1.2,1.65-1.54,3.73,1.62,3.19c3.8-0.63,5.56,1.93,7.2,4.39c2.91,4.37,5.7,8.74,10.33,11.6
		c1.68,1.05,3.32,2.98,4.98,0.97c1.71-2.07-0.57-3.5-1.94-4.76c-1.68-1.55-4.34-2.46-4.88-4.74c-2.24-9.49-10.23-15.05-15.01-22.79
		c-0.9-1.47-2.69-2.54-1.57-4.63c0.53-0.99,1.43-1.63,2.58-1.59c2.22,0.09,2.77,1.94,3.46,3.56c5.12,12.05,17.56,18.3,23.41,29.8
		c0.49,0.95,2.06,1.3,3.07,2.03c3.79,2.73,6.47,6.38,6.53,11.09c0.07,5.65,2.85,8.82,7.67,10.96c2.07,0.91,3.78,2.67,5.87,3.55
		c4.96,2.08,7.63,7.72,13.13,8.73c7.04,1.28,14.04,6.2,21.28,0.57C319.47,333.15,323.8,329.5,329.1,331.27z M385.75,209.73
		c2.41-3.71,8.99-5.29,12.84-3.59c0.99,0.44,1.91,0.93,1.82,2.26c-0.32,1.57-1.41,2.41-2.83,2.83c-6.5,1.91-11.83,6.06-17.66,9.25
		c-1.68,0.92-3.95,3.18-5.41,0.52c-1.19-2.17,1.5-3.28,3.16-4.02C381.18,215.42,383.64,212.95,385.75,209.73z M376.5,197.2
		c2.7-0.01,4.71,1.29,6.26,3.4c0.85,1.15,1.77,2.46,0.79,3.86c-0.99,1.41-2.14,0.25-3.26-0.12c-4.34-1.4-1.48,2.2-2.29,3.01
		c0.77,3.45-0.45,5.83-3.53,6.25c-3.07,0.42-2.89-2.47-3.05-4.51c-0.31-3.85-0.52-7.73-5.68-8.01c-3.86-0.2-8.31,3.89-8.89,8.44
		c-0.31,2.41,0.27,4.94,0.13,7.39c-0.12,1.94-0.62,4.24-3.09,4.24c-2.41,0.01-3.36-2.29-3.2-4.17c0.37-4.42-0.03-8.8,0.06-13.18
		c0.11-4.85,5.47-8.34,11.53-7.56C367.03,196.84,371.74,197.22,376.5,197.2z M338.4,187.93c4.05-1.37,7.71-3.47,11.44-5.49
		c2.11-1.14,10.86,2.35,13.03,5.02c0.4,0.51,0.61,1.2,0.87,1.72c-1.18,2.75-2.44,5.48-5.8,4.22c-5.93-2.22-11.64-4.04-17.58,0.03
		c-1.34,0.92-3.17,0.42-4.01-1.38C335.33,189.88,336.62,188.53,338.4,187.93z M199.63,191.86c-0.77,1.59-2.47,2.37-2.99,0.34
		c-1.17-4.51-4.19-6.62-8.1-8.27c-1.4-0.59-2.52-1.97-2.18-4.53c4.97,1.27,8.63,3.98,11.99,7.14
		C199.83,187.93,200.62,189.8,199.63,191.86z"/>
	<path d="M480.88,180.06c0-0.01-0.01-0.02-0.01-0.04c0,0.01-0.01,0.01-0.01,0.02L480.88,180.06z"/>
	<path d="M1368.8,512.12c-1.31-3.79-3.49-6.39-7.5-7.47c-2.68-0.72-5.2-2.47-5.42-5.31c-1.14-14.66-13.7-23.15-18.71-36.7
		c-1.85,4.7-3.41,8.66-1.91,12.58c2.14,5.64,0.29,10.42-1.83,15.37c-1.52,3.56-3.92,3.94-6.77,1.98c-3.07-2.12-6.22-4.04-9.58-5.67
		c-6.89-3.34-7.61-4.98-4.61-12.04c1.76-4.13,0.51-5.62-3.65-5.53c-2.82,0.06-6.52,1.24-8.27-0.12c-4.93-3.8-6.55-1.7-7.44,4.04
		c-3.48-5.52-5.78-4.95-7.98-0.09c-0.85,1.87-2.24,3.53-3.04,5.54c-1.57,4-3.42,4.23-6.54,1.05c-5.29-5.41-8.15-5-11.28,2.02
		c-1.83,4.11-4.13,7.28-8.73,8.5c-3.99,1.07-6.23,3.79-6.49,8.09c-0.22,3.55-2.31,5.31-5.76,5.79c-4.86,0.68-9.43,2.59-14.52,2.66
		c-6.29,0.1-16.65,9.31-15.95,14.36c0.84,6.04,2.07,11.91,2.54,18.09c0.4,5.26,4.29,11.31,7.33,16.57c3.61,6.26,4.26,6.9-0.78,11.57
		c-2.95,2.73-2.19,4.82,0.07,7.15c3.31,3.4,8.99,3.87,15.33,0.35c4.35-2.41,8.9-3.68,13.61-3.79c4.74-0.13,7.61-2.28,9.57-6.22
		c1.35-2.71,3.25-5.25,6.41-4.66c6.12,1.13,11.43-1.48,17.04-2.79c2.59-0.6,5.41-1.41,7.64,0.48c2.26,1.92,4.83,2.92,7.55,3.69
		c4.33,1.22,6.85,3.59,5.73,8.51c-0.28,1.22-0.51,2.6,0.97,3.25c1.55,0.68,2.71-0.2,3.73-1.27c1.34-1.41,2.51-3.01,4.01-4.22
		c2.41-1.94,4.56-2.51,4.67,1.85c0.03,1.6,0.43,2.21,2.4,3.03c3.16,1.31,7.27,4.12,7.46,7.38c0.37,6.32,3.32,9.06,8.81,10.37
		c0.75,0.18,1.41,1.06,1.97,1.73c1.59,1.92,3.18,2.12,4.83,0.14c1.85-2.21,4.15-1.96,6.25-0.78c3.01,1.68,5.47,0.66,8.49-0.26
		c7.88-2.4,13.47-6.51,15-15.11c0.27-1.5,1.4-2.85,2.23-4.22c11.58-19.05,10.12-37.92-4.23-55.35
		C1370.34,515.35,1369.36,513.76,1368.8,512.12z"/>
	<path d="M624.35,70.42c-0.12-3.41-0.1-6.79,2.32-9.6c1.54-1.79-0.19-2.17-1.21-3.11c-2.73-2.53-4.22-5.77-1.38-8.89
		c5.46-5.99,10.34-12.7,18.15-16.07c1.6-0.68,3.12-1.69,4.46-2.81c2.57-2.16,2.02-4.31-0.51-6.08c-3.67-2.57-9.24-2.22-12.81,0.79
		c-1.76,1.48-3.39,3.14-5.2,4.56c-5.34,4.19-11.2,3.24-14.21-2.85c-2.72-5.49-6.77-10.47-7.14-17.04c-0.09-1.63-0.64-4.25-2.77-3.96
		c-5.06,0.67-10.36-1.67-15.16,0.93c-7.99,4.33-17.07,3.76-25.53,5.95c-3.29,0.85-6.91,0.12-11.44-1.93
		c11.39,0.14,21-2.2,30.38-6.36c-8.66-1.35-16.97-4.74-25.87-3.77c-6.15,0.67-12.3,1.24-18.46,1.72
		c-10.38,0.81-19.95,4.08-26.49,13.06c-1.92,2.64-3.73,3.03-5.9,0.36c-0.96-1.18-1.8-3.02-3.76-2.15c-1.69,0.75-1.6,2.56-1.79,4.17
		c-0.92,8.09-6.72,11.86-13.81,8.02c-5.32-2.88-10.8-2.98-15.91-1.89c-4.67,1-10.96,0.81-13.36,6.12c-1.62,3.59-3.62,4.24-6.89,4.16
		c-4.2-0.12-7.27,1.27-7.54,6.2c-0.16,2.93-1.82,4.54-4.81,4.56c-2.66,0.02-4.97,0.83-6.26,3.28c-1.91,3.64-5.39,4.38-8.87,5.04
		c-1.9,0.36-3.89,0.2-5.81,0.46c-0.58,0.07-1.34,0.68-1.53,1.23c-0.26,0.73,0.44,1.41,1.16,1.43c5.21,0.13,8.01,4.03,11.37,7.13
		c2.72,2.51,5.18,1.82,7.1-1.08c0.81-1.21,1.31-2.62,2.33-4.72c1.21,5.2,4.49,5.94,8.03,5.2c6.15-1.27,11.96,0.42,17.8,1.61
		c10.29,2.1,18.57,6.31,17.86,18.96c-0.01,0.18,0.03,0.35,0.05,0.53c0.38,2.91,1.77,3.46,3.75,1.35c1.93-2.07,4.06-3.39,6.94-3.23
		c4.08,1.7,6.34,5.09,7.63,9.05c0.58,1.81,0.3,4.28-2.34,4.45c-2.33,0.16-2.7-1.67-2.47-3.73c0.21-1.87,0.88-4.26-1.66-5.01
		c-3.4-0.99-6.43-0.21-7.85,3.46c-1.28,3.29-0.94,6.08,3.21,6.79c2.41,0.41,3.1,1.23,1.67,3.5c-3.07,4.88-0.86,9.64,2.57,12.36
		c3.07,2.45,4.25,5.68,6.49,8.2c5.1,5.74,9.63,13.48,19.49,11.61c0.67-0.13,1.81,0.48,2.22,1.1c1.74,2.62,4,3.42,6.87,2.29
		c3.18-1.25,4.55-3.69,4.53-7.09c-0.01-3.21,0.47-6.14,4.66-6.39c1.64-0.1,2.83-1.26,2.44-2.85c-1.11-4.51,1.72-5.56,5.01-7.16
		c4.5-2.18,8.97-3,13.85-2.66c1.88,0.13,4.34,0.65,5.37-1.36c3.24-6.3,8.72-7.49,15.06-7.7c6.78-0.22,12.97-3.31,19.48-4.83
		c1.47-0.34,3.75,0.62,4.21-1.26c0.48-1.98-1.09-3.91-2.81-4.69c-3.93-1.78-3.91-4.07-1.55-7.05c-0.01-0.01-0.01-0.01-0.02-0.02
		c2.86,0.25,5.01,1.39,6.02,4.35c1.08,3.17,3.55,4.01,6.37,2.66c2.86-1.37,1.86-3.65,0.86-5.93c-2.98-6.81-1.96-8.26,5.63-8.39
		c0.88-0.01,1.77-0.04,2.66,0.02C622.85,75.7,624.48,74.03,624.35,70.42z"/>
	<path d="M1324.31,450.95c2.61-0.54,4.24,0.37,5.85,2.49c5.19,6.83,6.7,6.73,11.6-0.17c0.62-0.87,1.2-1.78,1.95-2.52
		c4.03-3.97,8.52-3.39,11.02,1.73c2.42,4.97,6.92,6.88,11.5,8.8c1.16,0.49,2.48,0.77,3.42-0.4c0.9-1.12,0.52-2.4-0.07-3.51
		c-0.66-1.24-1.26-2.73-2.34-3.49c-4.64-3.28-7.91-7.49-9.85-12.85c-0.38-1.06-1.49-2.08-2.52-2.61c-3.43-1.76-5.9-4.54-8.1-7.54
		c-1.46-1.99-3.22-3.25-5.52-3.86c-3.28-0.87-6.28-2.35-9.17-4.1c-5.87-3.57-12.34-4.42-18.95-3.59
		c-6.36,0.79-12.09-0.41-17.28-4.02c-1.81-1.25-3.24-1.08-4.81,0.05c-0.86,0.62-1.91,1.37-1.57,2.53c0.49,1.68,2.3,1.66,3.56,1.79
		c5.41,0.57,6.37,2.53,2.91,6.99c-1.38,1.78-2.15,4.96,1.89,4.69c7.38-0.48,13.51,3.29,19.78,5.9c7.11,2.97,7.69,7.92,2.9,12.88
		C1321.5,451.66,1323.03,451.18,1324.31,450.95z"/>
	<path d="M1217.79,391.58c-1.42,0.37-2.49,1.55-2.92,2.91c-1.12,3.47-3.61,5.04-6.96,5.74c-1.41,0.29-2.74,1.05-3.41,2.35
		c-1.45,2.82-3.18,3.8-6.36,2.34c-2.42-1.11-3.1,0.93-3.03,2.9c0.4,10.2,5.96,21.22,17.93,20.97c2.04-0.04,3.7,0.98,5.52,1.62
		c4.88,1.71,7.75-0.48,7.75-5.73c0-3.94,1.42-7.08,4.18-9.97c3.33-3.48,6.5-7.29,2.85-12.6c-3.22-4.66-2.82-8.64,3.1-11.91
		c-4.19,0.25-4.92-2.67-5.9-5.35c-0.41-1.11-0.71-2.68-2.38-2.24c-0.95,0.25-2.49,1.19-2.44,1.71
		C1226.2,390.31,1221.71,390.53,1217.79,391.58z"/>
	<path d="M938.52,470.84c-3.67-0.89-4.49,2.65-6,4.9c-3.68,5.47-7.28,10.81-14.49,12.36c-3.31,0.71-4.77,3.51-3.46,7.09
		c1.12,3.07,2.04,6.66,0.84,9.38c-3.23,7.31-0.35,14.25,0.16,21.35c0.17,2.44,0.83,4.63,3.51,5.35c2.67,0.73,5.23,0.78,7.34-1.51
		c2.2-2.37,3.85-5.06,4.88-8.14c1.69-5.03,3.02-10.16,4.87-15.17c2.92-7.95,5-16.22,7.21-23.61c-0.43-2.31-0.64-3.71-0.95-5.07
		C941.8,475.07,941.89,471.65,938.52,470.84z"/>
	<path d="M706.34,161.47c2.08,0.79,5.39,0.58,5.83,2.91c0.49,2.52-3.03,2.9-4.57,4.47c-1.58,1.6-4.12,2.91-2.82,5.63
		c1.29,2.69,4.7,6.2,6.2,5.66c5.54-1.98,10.48,0.49,15.64,0.52c3.02,0.02,5.37-1.75,6.62-4.55c1.19-2.66,0-4.87-1.91-6.67
		c-1.53-1.45-3.25-2.7-4.89-4.04c-4.58-3.72-8.02-8.17-9.16-12.81c0.9-6.88-4.07-7.08-6.96-9.24c-1.59-1.19-2.91-1.84-4.62-0.19
		c-2.17,2.08-4.34,3.71-7.86,3.48c-2.59-0.16-2.67,2.81-1.64,4.48C698.78,155.3,701.36,159.58,706.34,161.47z"/>
	<path d="M1180.57,432.72c2.64-5.83,1.98-9.39-3.93-13.97c-9.7-7.52-19.12-15.67-27.79-24.55c-2.67-2.73-5.87-5.17-9.93-5.83
		c-0.89-0.03-1.86-0.11-2.36,0.79c-0.52,0.95,0.17,1.71,0.77,2.34c2.19,2.32,4.45,4.56,6.64,6.87c3.52,3.71,8.7,6.51,9.98,11.53
		c2.84,11.16,8.93,19.55,18.44,25.62c2.33,1.48,3.19,5.97,6.2,4.94C1181.59,439.41,1179.43,435.24,1180.57,432.72z"/>
	<path d="M1298.34,248.68c-2.15-0.22-3.77,0.41-5.36,1.67c-2.63,2.07-5.08,4.34-8.32,5.58c-3.24,1.23-2.52,3.91-1.54,6.28
		c1.05,2.56,3.26,7.04,5.28,5.21c4.39-3.98,9.6-4.95,14.41-7.32c2.44-1.2,3.76-4.11,6.66-2.29c1.99,0.13,3.36-0.27,4.21-1.54
		c1.51-2.28,3.92-2.92,6.26-3.68c6.93-2.25,12.71-5.46,12.19-14.18c-0.03-0.51-0.01-1.28,0.3-1.53c5.03-4.01,1.59-8.23,0.3-12.32
		c-0.51-1.62-1.13-3.78-3.41-3.33c-2.06,0.41-2.21,2.49-2.44,4.27C1324.47,243.59,1315.98,250.52,1298.34,248.68z"/>
	<path d="M213.88,64.16c4.55-1.38,8.61-2.5,11.02,3.16c0.23,0.53,1.37,1.28,1.66,1.12c5.76-3.13,9.67,0.62,13.87,3.53
		c0.5,0.34,1.41,0.29,2.08,0.15c7.04-1.48,14.02-1.04,21.06,0.04c4.25,0.65,7.1-1.41,8.32-5.65c0.98-3.38,0.51-5.42-3.65-4.37
		c-2.12,0.53-4.25,0.94-6.03-0.72c-3.22-3-6.05-1.99-8.82,0.65c-2.8,2.65-5.76,3.18-9.09,0.85c-2.53-1.76-5.37-2.55-8.5-2.49
		c-3.45,0.07-6.46-0.63-8.73-3.9c-1.58-2.29-4.47-2.35-7.29-2.05c-7.4,0.77-13.42,4.28-19.84,10.01
		C205.25,64.75,209.66,65.43,213.88,64.16z"/>
	<path d="M954.84,85.17c3.72,1.61,7.42,3.55,11.62,3.53c4.09-0.02,6.13-2.54,4.72-5.6c-2.8-6.06-2.36-7.1,3.5-10.74
		c7.89-4.89,16.45-6.28,25.52-5.59c2.66,0.12,5.34,0.04,7.94,0.42c3.86,0.54,7-0.78,9.69-3.3c1.32-1.24,4-2.43,2.77-4.52
		c-1.22-2.07-3.93-1.32-5.8-0.38c-3.07,1.55-6.25,3.06-9.63,2.44c-9.7-1.78-18.95,1.1-28.37,2.25c-1.63,0.2-3.31,0.42-4.44,1.56
		c-5.14,5.17-12.39,6.77-18.11,10.97c-2.36,1.73-6.44,2.41-6.07,5.87C948.51,85.14,952.53,84.18,954.84,85.17z"/>
	<path d="M1468.35,602.21c-1.03,0.66-2.44,1.07-3.07,2.01c-4.11,6.14-11.4,8.19-16.44,13.14c-2.19,2.15-6.46,3.35-5.39,7.04
		c1.15,3.95,5.71,2.49,8.77,3.42c2.46,0.69,3.96-0.8,5.54-2.3c4.45-4.28,8.92-8.54,13.42-12.75c1.59-1.49,2.69-3.24,3.4-5.29
		c0.63-1.83,0.7-3.4-0.92-4.81C1471.95,601.2,1470.24,601.01,1468.35,602.21z"/>
	<path d="M658.5,111.53c-2.53-2.24-5.54-5.15-9.34-3.56c-7.15,2.99-13.95,4.26-21.15-0.05c-2.07-1.25-5.34-1.42-7.06,1.51
		c-1.68,2.86-0.21,5.85,1.94,6.98c4.93,2.55,11.07,2.12,14.74,5.99c7.48-0.99,13.01-4.79,19.23-6.65
		C658.33,115.31,660.2,113.03,658.5,111.53z"/>
	<path d="M1150.08,375.05c2.63,1.87,3.94,4.41,4.98,7.31c1.63,4.5,3.56,8.9,5.08,13.43c1.99,5.93,7.09,8.63,11.69,11.84
		c1.54,1.08,3.05,0.66,3.65-1.72c-1.4-2.66-3.6-5.3-4.26-8.29c-2.44-11.23-10.76-18.45-17.45-26.77c-1.05-1.3-2.66-3.76-4.67-1.42
		C1147.54,371.24,1148.15,373.67,1150.08,375.05z"/>
	<path d="M310.16,55.31c8.83,6.35,19.66,8.39,29.06,13.53c0.71,0.4,1.74,0.22,2.63,0.27c9.86,0.47,19.8-1.07,29.62,0.98
		c0.88,0,1.77,0.07,2.66-0.02c2.15-0.24,5.56,0.61,5.63-2.24c0.06-2.29-3.35-2.1-5.34-2.13c-9.36-0.12-18.72-0.42-28.07-0.75
		c-5.63-0.19-10.64-1.07-14.66-4.84c-5.71-5.36-13.09-5.77-19.99-7.67c-1.02-0.28-2.29-0.65-2.9,0.42
		C308.1,54.07,309.31,54.7,310.16,55.31z"/>
	<path d="M689.84,176.6c2.64-1.42,5.18-3.03,7.66-4.72c2-1.36,3.18-3.3,3.22-6.05c-0.54-2.98-1.22-6.28-4.45-7.79
		c-3.01-1.4-5.4,0.07-7.29,2.63c-0.49,0.66-1.41,1.01-2.18,1.44c-3.26,1.79-5.06,10.78-2.71,13.65
		C685.75,177.79,687.85,177.67,689.84,176.6z"/>
	<path d="M480.91,180.02c0.01,0.01,0.01,0.02,0.02,0.02c0,0,0,0,0,0L480.91,180.02z"/>
	<path d="M472.78,190.76c-0.86,1.57-0.56,2.93,1.39,3.04c7.41,0.46,14.82,0.8,22.23,1.12c1.15,0.05,1.3-0.94,1.29-1.88
		c-0.03-3.61-5.45-8.9-9.26-9.04c-3.14-0.12-5.78-1.19-7.51-3.97C476.3,182.15,474.97,186.79,472.78,190.76z"/>
	<path d="M1242.3,345.33c0.96,1.26,2.09,2.43,3.31,3.45c2.47,2.1,2.43,3.95,0.03,6.15c-1.99,1.83-4.41,3.43-5.45,7.15
		c7.08-4.16,10.72-11.76,19.95-12.62c-3.32-2.79-5.91-2.83-8.53-3.01c-4.32-0.31-5.3-2.08-3-5.77c1.11-1.77,2.78-3.18,4.22-4.75
		c1.64-1.79,1.18-3.65-0.04-5.34c-0.99-1.38-1.67-3.55-3.82-3.24c-2.06,0.3-1.58,2.49-2.03,3.92c-0.56,1.83-1.89,2.94-3.29,4.05
		C1238.98,339.02,1238.74,340.66,1242.3,345.33z"/>
	<path d="M1351.73,211.17c-3.03-3.38-7.84-1.55-11.22-4.09c-3.25-2.45-5.71-1.18-6.83,2.49c-0.7,2.28-2.11,3.51-4.14,4.47
		c-1.34,0.63-3.38,1.23-2.63,3.3c0.61,1.66,2.43,1.83,4.07,1.85c6.62-1.04,13.23-2.05,19.84-3.14c1.04-0.17,2.06-0.69,2.44-1.81
		C1353.77,212.74,1352.55,212.09,1351.73,211.17z"/>
	<path d="M1237.78,430.26c2.3,1.75,3.7-0.81,5.26-2.12c2.71-2.24,4.79-2.57,5.12,1.85c0.22,2.91,1.8,4.91,4.16,6.4
		c0.92,0.58,1.96,0.93,3,0.38c1.21-0.63,0.97-1.76,0.69-2.79c-0.88-3.22-1.39-6.63-4.68-8.57c-1.05-0.62-2.47-1.37-2.21-2.71
		c0.36-1.87,2.23-1.2,3.53-1.44c1.33-0.26,3.23-0.06,3.04-2.06c-0.17-1.73-1.96-1.91-3.34-1.85c-2.97,0.13-5.91,1.22-9.18,0
		c-5.01-0.2-3.65,4.5-4.83,7.15C1237.56,426.27,1235.54,428.54,1237.78,430.26z"/>
	<path d="M1217.65,452.07c0.63-1.14-0.03-2.24-0.91-2.75c-4.74-2.69-9.99-5.51-15.24-4.59c-6.12,1.07-11-0.81-16-3.3
		c-1.3-0.64-2.27-1.79-3.7-0.66c-1.43,1.13-1.55,2.63-0.88,4.31c1.25,3.14,3.75,4.02,6.8,3.96c3.49-0.06,7.83-1.54,10.29,0.01
		c5.4,3.41,11.12,2.96,16.82,3.6C1215.86,452.86,1217.02,453.27,1217.65,452.07z"/>
	<path d="M1488.49,587.9c-6.04,0.06-8.79-3.5-10.49-8.69c-0.5-1.53-1.12-4.18-3.25-3.35c-2.36,0.91-0.52,2.95-0.04,4.53
		c1.23,4.11,3.77,8.08-0.6,12.21c-2.09,1.98,0.54,2.55,2.02,2.68c3.67,0.31,5.35,1.73,3.6,5.37c-0.33,1.18-0.74,2.31,0.73,2.76
		c1.64,0.5,2.83-0.43,3.48-1.74c1.82-3.65,3.66-7.2,6.43-10.3C1492.07,589.46,1490.72,587.88,1488.49,587.9z"/>
	<path d="M1255.31,373.27c-1,0.19-1.92,0.22-2.71,0.57c-1.78,0.79-3.98,1.61-3.75,3.93c0.24,2.53,2.68,1.75,4.29,1.92
		c2.36,0.25,4.67,0.64,6.16,2.63c3.05,4.04,6.08,2.76,8.92-0.05c3.01-2.98,2.74-6.89-0.38-9.9c-1.02-0.97-2.44-2.49-3.58-1.16
		C1261.63,374.26,1258.68,374.59,1255.31,373.27z"/>
	<path d="M401.53,319.39c0.72-2.3-1.85-3.15-3.68-3.63c-3.41-0.91-7.21-1.32-9.62-4.04c-5.99-6.73-13.16-5.51-20.52-3.69
		c-1.16,0.29-2.66,0.47-2.51,2.15c0.16,1.83,1.69,2.09,3.15,2.14c2.29,0.06,4.58,0.02,7.54,0.02c4.63-0.72,9.4,0.34,13.71,3.74
		c2.05,1.61,4.53,2.76,6.96,3.76C398.18,320.5,400.69,322.05,401.53,319.39z"/>
	<path d="M301.37,73.96c-3.24,1.41-6.45,1.34-9.76,1.51c-1.8,0.09-4.51-0.35-4.21,2.53c0.28,2.6,2.69,2.2,4.89,1.91
		c2.64-0.52,4.85,0.04,6.17,3.12c1.13,2.6,3.27,3.9,5.96,2.21c2.55-1.6,5.23-3.62,3.76-7.21C307.03,75.16,304.89,72.42,301.37,73.96
		z"/>
	<path d="M409.37,327.11c3.72,0.06,6.17,1.5,8.5,3.02c2.86,1.87,5.73,1.3,8.64,0.5c1.5-0.41,3.86,1.07,4.33-1.7
		c0.44-2.57-0.87-4.37-2.94-5.76C422.38,319.47,415.06,320.75,409.37,327.11z"/>
	<path d="M291.54,61.48c0,0.05,0,0.11,0,0.17c-3.53,0-7.06-0.11-10.59,0.03c-2.19,0.09-2.97,1.7-2.94,3.69
		c0.02,1.53-0.63,3.54,1.03,4.37c2.02,1.01,2.4-1.43,3.54-2.33c3.49-2.75,7.31-3.65,11.21-1.08c2.08,1.38,4.16,1.91,6.49,1.46
		c2.04-0.4,3.89-1.41,3.74-3.76c-0.15-2.32-2.23-2.48-4.02-2.53C297.19,61.42,294.37,61.48,291.54,61.48z"/>
	<path d="M277.35,51.85c5.32-0.16,10.42,0.32,15.28,3c1.37,0.76,4.75,1.91,5.54-0.71c0.77-2.55-1.39-4.6-3.99-5.5
		c-3.69-1.28-7.46-2.19-11.44-2.19c-1.93,0.18-3.9,0.2-5.78,0.61c-1.39,0.3-2.77,1.14-2.48,2.93
		C274.74,51.48,276.11,51.88,277.35,51.85z"/>
	<path d="M1362.71,602.44c-0.61-0.34-1.72-0.1-2.47,0.21c-2.58,1.07-4.98,2.72-8,1.94c-1.25-0.01-3.74-1.01-3.35,0.76
		c0.6,2.7,2.23,5.63,4.31,7.41c1.93,1.67,4.73,0.49,6.58-1.47c1.59-1.69,2.49-3.81,3.18-6.01
		C1363.27,604.3,1363.86,603.08,1362.71,602.44z"/>
	<path d="M1071.95,370.94c-3.61,0.06-2.14,5.18-3.26,7.8c0.54,2.71,0.45,6,4.06,5.88c2.99-0.1,4.18-3.1,3.85-5.4
		C1076.13,375.98,1075.81,370.88,1071.95,370.94z"/>
	<path d="M320.93,78.76c1.55-0.06,2.61-0.05,3.65-0.19c2.22-0.27,4.67-0.13,6.02-2.46c0.48-0.83,0.18-1.86-0.61-2.34
		c-2.24-1.37-4.53-2.81-7.35-1.7c-0.98,0.38-2.07,0.67-2.84,1.32c-1.4,1.21-3.95,2.32-3.43,4.2
		C316.99,79.89,319.62,78.68,320.93,78.76z"/>
	<path d="M1263.29,407.15c-6.14-0.02-11.79,1.94-17.61,1.46c-1.05-0.09-2.26,0.36-2.21,1.73c0.07,1.87,1.55,2.33,3.03,2.15
		c4.38-0.54,8.74-1.22,13.09-1.88C1261.21,410.36,1262.71,409.89,1263.29,407.15z"/>
	<path d="M241.95,55.79c2.6-0.61,5.19-0.87,7.65-0.02c1.69,0.22,2.98-0.26,3.52-1.81c0.48-1.34,0.57-2.81-0.35-4.04
		c-0.88-1.19-2.17-1.07-3.35-0.6c-2.76,1.11-5.49,2.31-8.23,3.49c-0.84,0.36-1.57,0.94-1.35,1.98
		C240.09,55.93,241.09,55.99,241.95,55.79z"/>
	<path d="M1260.92,459.6c2.52-1.19,5.01-2.47,7.48-3.75c0.96-0.5,1.74-1.2,1.6-2.47c-0.34-1.59-1.57-2.3-2.92-2.72
		c-2.64-0.84-9.48,5.25-8.98,7.98C1258.45,460.54,1259.78,460.14,1260.92,459.6z"/>
	<path d="M792.14,242.76c1.7-2.22,0.43-4.13-1.59-5.16c-3.01-1.53-6.23-1.36-10.15-0.4c2.6,2.17,4.7,3.89,6.75,5.64
		C788.86,244.32,790.7,244.64,792.14,242.76z"/>
	<path d="M1280.11,409.99c0.43-0.94,0.6-2,0.85-2.9c-0.17-1.41,0.18-3.74-1.8-2.94c-3.4,1.39-4.34,4.78-4.46,8.25
		c-0.05,1.34-0.35,3.55,1.33,3.48C1279.51,415.76,1279.09,412.22,1280.11,409.99z"/>
	<path d="M1247.26,299.23c-3.52,0.56-4.08,4.01-4.97,6.84c-0.45,1.42-0.41,3.32,1.53,3.14c3.65-0.34,4.4-3.57,5.34-6.32
		C1249.06,301.26,1249.57,298.87,1247.26,299.23z"/>
	<path d="M1258.77,366.37c-0.32-2.62-2.55-4.9-5.15-5.42c-2.46-0.48-3.07,2.03-3.12,4c-0.08,3.19,2.49,2.81,4.61,3.02
		C1256.42,367.62,1259.04,368.6,1258.77,366.37z"/>
	<path d="M767.55,227.91c-0.44-2.07-1.3-3.87-3.68-3.69c-2.3,0.17-3.23,1.98-3.19,4.08c0.04,2.2,1.3,3.77,3.58,3.6
		C766.48,231.73,767.48,230.08,767.55,227.91z"/>
	<path d="M1442.42,512.44c-2.05-2.41-4.69-3.43-8.85-3.29c2.08,2.76,3.54,4.9,5.24,6.83c0.98,1.09,2.44,1.65,3.73,0.31
		C1443.75,515.04,1443.42,513.62,1442.42,512.44z"/>
	<path d="M1267.84,359.11c0.17-2.01-1.18-3.14-3.11-3.61c-2.33,0.24-3.14,2-3.43,3.93c-0.27,1.86,0.77,2.95,2.69,3.03
		C1266.31,362.56,1267.66,361.27,1267.84,359.11z"/>
	<path d="M10.09,164.19c-0.77-0.5-1.51-0.01-1.74,0.63c-1.24,3.45-4.86,3.74-8.34,5.98c7.34,1,10.35-0.37,10.78-4.23
		C10.87,165.67,10.94,164.75,10.09,164.19z"/>
	<path d="M439.29,329.09c-0.19,1.5,0.14,2.78,1.82,3.15c1.53-0.07,2.24-0.97,2.37-2.31c0.14-1.51-0.26-2.87-1.98-3.13
		C439.9,326.57,439.46,327.83,439.29,329.09z"/>
	<path d="M321.54,67.38c-0.71-1.71-2.33-1.91-3.87-2.02c-1.19-0.09-2.89,0.14-2.39,1.82c0.51,1.7,2.41,1.75,3.99,1.76
		C320.3,68.94,321.43,68.93,321.54,67.38z"/>
	<path d="M391.05,333.86c-0.16,1.43,0.56,2.44,1.97,2.59c1.42,0.15,2.22-0.75,2.49-2.1c-0.14-1.43-0.88-2.34-2.31-2.35
		C392.05,331.99,391.19,332.65,391.05,333.86z"/>
	<path d="M323.61,340.17c1.77,2.14,3.56,4.27,5.35,6.41c0.02-0.06,0.03-0.12,0.05-0.18C328.42,343.25,326.58,341.24,323.61,340.17z"
		/>
	<path d="M408.66,126.54c0.02,0,0.04,0,0.07,0c-2.88-2.98-5.74-2.95-8.59,0.01C402.97,125.13,405.82,125.16,408.66,126.54z"/>
	<path d="M1240.88,455.82c-1.02-0.04-1.73,0.45-1.79,1.44c-0.05,1.23,0.72,1.97,1.93,1.94c1.01-0.01,1.55-0.69,1.49-1.72
		C1242.46,456.48,1241.86,455.93,1240.88,455.82z"/>
</g>
</svg>
