<svg xmlns="http://www.w3.org/2000/svg" height="24" viewBox="0 -960 960 960" width="24"><path d="M480-440q-17 0-28.5-11.5T440-480v-320q0-17 11.5-28.5T480-840q17 0 28.5 11.5T520-800v320q0 17-11.5 28.5T480-440Zm0 320q-75 0-140.5-28.5t-114-77q-48.5-48.5-77-114T120-480q0-69 25-132t72-114q11-12 28-12t29 12q11 11 10 27.5T272-669q-35 39-53.5 87.5T200-480q0 117 81.5 198.5T480-200q117 0 198.5-81.5T760-480q0-53-19-102.5T687-671q-11-12-11.5-28t10.5-27q12-12 29-12t28 12q47 51 72 114t25 132q0 75-28.5 140.5t-77 114q-48.5 48.5-114 77T480-120Z"/></svg>